{"title":"Little_Johnny(2011)DVDRip_XviD","uid":6654752,"size":1156500625,"categoryP":"video","categoryS":"movies","magnet":"?xt=urn:btih:1f25de89ae4d097b41ad4eca86646a8875d8e46a&amp;dn=Little_Johnny%282011%29DVDRip_XviD&amp;tr=udp%3A%2F%2Ftracker.openbittorrent.com%3A80&amp;tr=udp%3A%2F%2Fopen.demonii.com%3A1337&amp;tr=udp%3A%2F%2Ftracker.coppersurfer.tk%3A6969&amp;tr=udp%3A%2F%2Fexodus.desync.com%3A6969","seeders":0,"leechers":1,"uploader":"SAFCukO09","files":4,"time":1315293675,"description":"\n\n*******************************************************************************\nLittle Johnny 2011\n*******************************************************************************\nGeneral Information Type.................: Movie\nVideo Format.........: AVI\nSource...............: DVD 16x9\nOriginal Format......: PAL\nGenre................: Comedy\nIMDb Rating..........: 7.1\nMovie Information....: http://www.imdb.com/title/tt1674086/\nStoryline............: Celebrates the wrongest jokes ever told. It's a coming\n.....................: of age story that's brimming with irreverent humor,\n.....................: larger-than-life characters, and crackling action to\n.....................: boot! It will remind you of the great cartoons of\n.....................: yesteryear.\nRelease Notes\nGeneral\nComplete name : Little_Johnny(2011)DVDRip_XviD\\Little_Johnny(2011).avi\nFormat : AVI\nFormat/Info : Audio Video Interleave\nFormat profile : OpenDML\nFile size : 1.05 GiB\nDuration : 1h 18mn\nOverall bit rate : 1 920 Kbps\nMovie name : BHE3897.Title3.DVDRip\nWriting application : Lavf52.78.4\nOriginal source form/Name : BHE3897\n\nVideo\nID : 0\nFormat : MPEG-4 Visual\nFormat profile : Advanced Simple@L5\nFormat settings, BVOP : 2\nFormat settings, QPel : No\nFormat settings, GMC : No warppoints\nFormat settings, Matrix : Default (H.263)\nMuxing mode : Packed bitstream\nCodec ID : DX50\nCodec ID/Hint : DivX 5\nDuration : 1h 18mn\nBit rate : 1 461 Kbps\nWidth : 720 pixels\nHeight : 406 pixels\nDisplay aspect ratio : 16:9\nFrame rate : 25.000 fps\nColor space : YUV\nChroma subsampling : 4:2:0\nBit depth : 8 bits\nScan type : Progressive\nCompression mode : Lossy\nBits/(Pixel*Frame) : 0.200\nStream size : 782 MiB (73%)\nWriting library : XviD 1.2.1 (UTC 2008-12-04)\n\nAudio\nID : 1\nFormat : AC-3\nFormat/Info : Audio Coding 3\nMode extension : CM (complete main)\nCodec ID : 2000\nDuration : 1h 18mn\nBit rate mode : Constant\nBit rate : 448 Kbps\nChannel(s) : 6 channels\nChannel positions : Front: L C R, Side: L R, LFE\nSampling rate : 48.0 KHz\nBit depth : 16 bits\nCompression mode : Lossy\nStream size : 240 MiB (22%)\nAlignment : Aligned on interleaves\nInterleave, duration : 32 ms (0.80 video frame)\nInterleave, preload duration : 32 ms\n\n\n\nThis is the rip as it was delivered to me, unadulterated. I will be cleaning\nit up etc soon and resizing for mobile but i am painfully aware that any\nmodification is loss of information, and this has already been crunched pretty\n\nhard, so here it is as the postie delivered it lol.\nVLC complains about a damaged idx, but it plays just fine in the other players\ni have thrown at it (VLC too apart from that).\nIf you are a Kevin Bloody Wilson fan you should know the sort of humour to\n\nexpect, with Kev playing......... Uncle Kev.\nPack a bowl or crack a stubbie, settle in and have a laugh.","torrent":{"xt":"urn:btih:1f25de89ae4d097b41ad4eca86646a8875d8e46a","amp;dn":"Little_Johnny%282011%29DVDRip_XviD","amp;tr":["udp%3A%2F%2Ftracker.openbittorrent.com%3A80","udp%3A%2F%2Fopen.demonii.com%3A1337","udp%3A%2F%2Ftracker.coppersurfer.tk%3A6969","udp%3A%2F%2Fexodus.desync.com%3A6969"],"infoHash":"1f25de89ae4d097b41ad4eca86646a8875d8e46a","infoHashBuffer":{"type":"Buffer","data":[31,37,222,137,174,77,9,123,65,173,78,202,134,100,106,136,117,216,228,106]},"announce":[],"urlList":[]}}